<svg xmlns="http://www.w3.org/2000/svg" version="1.1" xlink="http://www.w3.org/1999/xlink" xmlns:svgjs="http://svgjs.com/svgjs" width="100%" height="100%" preserveAspectRatio="xMidYMid meet" viewBox="0 0 158.79505920410156 147.00013732910156" overflow="visible"><defs id="SvgjsDefs13853"><linearGradient id="SvgjsLinearGradient_xMB0Qn7iQ" gradientUnits="userSpaceOnUse" x1="2.8421709430404e-14" y1="267.7" x2="267.7" y2="-1.4210854715202e-14"><stop id="SvgjsStop13856" stop-color="#d19ae5" offset="0.05"></stop><stop id="SvgjsStop13857" stop-color="#a334cb" offset="0.95"></stop></linearGradient></defs><g id="SvgjsG13854" transform="scale(0.5159705159705161)" opacity="1"><g id="SvgjsG13858" class="sEXBJ446w" transform="translate(61.55176596028252, 0) scale(0.6897844523005141)" light-content="false" non-strokable="false" fill="url(#SvgjsLinearGradient_xMB0Qn7iQ)"><path d="M219.6 48.1c-22.9-22.9-53.4-35.5-85.8-35.5S71 25.2 48.1 48.1s-35.5 53.4-35.5 85.8 12.6 62.9 35.5 85.8 53.4 35.5 85.8 35.5 62.9-12.6 85.8-35.5 35.5-53.4 35.5-85.8-12.7-62.9-35.6-85.8z"></path><path d="M133.8 0C59.9 0 0 59.9 0 133.8s59.9 133.8 133.8 133.8 133.8-59.9 133.8-133.8S207.8 0 133.8 0zm0 260.1c-69.7 0-126.3-56.5-126.3-126.3S64.1 7.6 133.8 7.6s126.3 56.5 126.3 126.3-56.5 126.2-126.3 126.2z"></path></g><g id="SvgjsG13859" class="9y8w7mTIjX" transform="translate(106.5864714045231, 45.03375958537063) scale(0.9458588699236656)" light-content="true" non-strokable="false" fill="#ffffff"><path d="M84.23 49.328a1.559 1.559 0 0 0-2.07-.766c-17.73 8.149-46.59 8.149-64.32 0a1.56 1.56 0 1 0-1.305 2.836c9.227 4.239 21.348 6.36 33.465 6.36s24.238-2.121 33.465-6.36a1.557 1.557 0 0 0 .766-2.07z"></path><path d="M96.867 35.867c-.004-.09-.031-.176-.05-.262-.024-.113-.044-.226-.09-.328-.008-.02-.008-.039-.016-.058-.031-.059-.082-.098-.117-.153a1.286 1.286 0 0 0-.211-.27c-.067-.066-.145-.109-.223-.163a1.377 1.377 0 0 0-.266-.153c-.093-.039-.187-.054-.285-.074-.066-.012-.129-.047-.199-.05-23.938-1.497-43.922-30.282-44.121-30.57-.582-.852-1.996-.852-2.578 0-.2.288-20.16 29.073-44.121 30.57-.07.003-.133.038-.2.05-.097.02-.187.035-.28.074-.102.04-.184.098-.274.157-.074.05-.148.093-.215.156-.086.082-.148.176-.215.273-.035.055-.086.09-.117.149-.008.02-.008.039-.016.058-.046.102-.066.215-.09.328-.019.09-.046.176-.05.262 0 .024-.008.035-.008.055v59.375c0 .863.7 1.562 1.563 1.562h18.75c.863 0 1.562-.699 1.562-1.562V63.078c7.98 1.652 16.488 2.484 25 2.484s17.02-.832 25-2.484v32.215c0 .863.7 1.562 1.563 1.562h18.75c.863 0 1.562-.699 1.562-1.562V35.918c0-.02-.008-.031-.008-.051zM48.055 9.84c-2.203 11.746-14.289 22.953-19.93 22.953a1.562 1.562 0 1 0 0 3.125c5.89 0 15.418-7.879 20.312-17.668v16.105a1.562 1.562 0 1 0 3.125 0V18.25c4.895 9.79 14.422 17.668 20.312 17.668a1.562 1.562 0 1 0 0-3.125c-5.64 0-17.727-11.203-19.93-22.953 6.14 7.652 20.391 23.121 37.797 26.871-23.074 9.352-56.406 9.352-79.48 0 17.406-3.75 31.652-19.219 37.793-26.871zm-26.18 52.641v31.25h-6.25V67.169a1.562 1.562 0 1 0-3.125 0v26.562H6.25V57.137c4.781 2.172 10.062 3.918 15.645 5.25-.004.031-.02.059-.02.094zm-15.625-8.8V38.386c12.371 5.617 28.059 8.426 43.75 8.426s31.379-2.809 43.75-8.426V53.68c-24.379 11.72-63.121 11.72-87.5 0zM87.5 93.73V67.17a1.562 1.562 0 1 0-3.125 0v26.562h-6.25v-31.25c0-.035-.016-.062-.02-.094 5.582-1.332 10.863-3.078 15.645-5.25v36.594z"></path></g><g id="SvgjsG13860" class="text" transform="translate(151.51, 284.9003411968545) scale(1)" light-content="false" fill="#0a0a0a"><path d="M-138.12 -24.87L-127.11 -24.87C-119.45 -24.87 -113.55 -26.77 -109.41 -30.57C-105.26 -34.36 -103.19 -39.46 -103.19 -45.85C-103.19 -52.37 -105.2 -57.53 -109.22 -61.32C-113.23 -65.12 -119.2 -67.02 -127.11 -67.02L-151.51 -67.02L-151.51 0L-138.12 0ZM-116.76 -45.85C-116.76 -39.02 -120.69 -35.6 -128.53 -35.6L-138.12 -35.6L-138.12 -56.2L-128.53 -56.2C-124.36 -56.2 -121.35 -55.31 -119.52 -53.54C-117.68 -51.77 -116.76 -49.2 -116.76 -45.85Z M-81.07 -10.25L-81.07 -67.02L-94.45 -67.02L-94.45 0L-58.57 0L-58.57 -10.25Z M-9.78 -13.48L-5.13 0L9.02 0L-15.57 -66.26L-30.85 -66.26L-55.53 0L-41.39 0L-36.64 -13.48ZM-13.38 -23.64L-33.13 -23.64L-23.26 -51.93Z M73 0L73 -67.02L59.62 -67.02L59.62 -21.07L29.62 -67.02L16.23 -67.02L16.23 0L29.62 0L29.62 -45.57L59.62 0Z M98.54 -67.02L85.15 -67.02L85.15 0L98.54 0Z M156.25 -67.02L105.94 -67.02L105.94 -56.39L124.36 -56.39L124.36 0L137.74 0L137.74 -56.39L156.25 -56.39Z"></path></g></g></svg>